<?xml version="1.0" encoding="UTF-8"?>
<svg id="Layer_2" xmlns="http://www.w3.org/2000/svg" viewBox="0 0 1063.29 246.46">
  <defs>
    <style>
      .cls-1 {
        fill: #231f20;
      }

      .cls-2 {
        fill: #39b54a;
      }
    </style>
  </defs>
  <g id="Layer_1-2" data-name="Layer_1">
    <g>
      <g>
        <rect class="cls-2" x="99.38" width="48.66" height="48.48"/>
        <rect class="cls-2" x="148.04" width="48.66" height="48.48"/>
        <rect class="cls-2" x="148.04" y="48.5" width="48.66" height="48.48"/>
        <rect class="cls-1" y="197.98" width="48.66" height="48.48"/>
        <polygon class="cls-1" points="0 148.49 48.66 148.49 48.66 98.99 97.31 98.99 97.31 48.49 48.66 49.5 0 97.98 0 148.49"/>
        <polygon class="cls-1" points="48.04 197.14 48.04 148.49 97.54 148.49 97.54 99.83 148.04 99.83 147.03 148.49 98.55 197.14 48.04 197.14"/>
      </g>
      <path class="cls-1" d="M271.31,88.35c5.18-2.78,11.09-4.17,17.74-4.17,7.74,0,14.74,1.91,21.01,5.72,6.27,3.82,11.23,9.24,14.88,16.27,3.65,7.03,5.48,15.18,5.48,24.45s-1.83,17.47-5.48,24.61c-3.65,7.14-8.61,12.67-14.88,16.6-6.27,3.92-13.27,5.89-21.01,5.89-6.65,0-12.51-1.36-17.58-4.09-5.07-2.72-9.18-6.16-12.35-10.3v56.08h-22.89V85.65h22.89v13.08c2.94-4.14,7-7.6,12.18-10.38ZM303.69,116.47c-2.24-3.98-5.18-7-8.83-9.08-3.65-2.07-7.6-3.11-11.85-3.11s-8.04,1.06-11.69,3.19c-3.65,2.13-6.6,5.21-8.83,9.24-2.24,4.03-3.35,8.78-3.35,14.23s1.12,10.19,3.35,14.23c2.23,4.03,5.18,7.11,8.83,9.24,3.65,2.13,7.55,3.19,11.69,3.19s8.2-1.09,11.85-3.27c3.65-2.18,6.59-5.29,8.83-9.32,2.23-4.03,3.35-8.83,3.35-14.39s-1.12-10.16-3.35-14.14Z"/>
      <path class="cls-1" d="M348.65,71.01c-2.67-2.56-4.01-5.75-4.01-9.57s1.33-7,4.01-9.57c2.67-2.56,6.02-3.84,10.06-3.84s7.38,1.28,10.06,3.84c2.67,2.56,4.01,5.75,4.01,9.57s-1.34,7.01-4.01,9.57c-2.67,2.56-6.02,3.84-10.06,3.84s-7.39-1.28-10.06-3.84ZM369.99,85.65v90.59h-22.89v-90.59h22.89Z"/>
      <path class="cls-1" d="M668.74,137.81h-66.22c.54,6.54,2.83,11.67,6.87,15.37,4.03,3.71,8.99,5.56,14.88,5.56,8.5,0,14.55-3.65,18.15-10.96h24.69c-2.62,8.72-7.63,15.89-15.04,21.5-7.41,5.62-16.51,8.42-27.31,8.42-8.72,0-16.54-1.93-23.46-5.8-6.92-3.87-12.32-9.35-16.19-16.43-3.87-7.08-5.8-15.26-5.8-24.53s1.91-17.6,5.72-24.69c3.81-7.08,9.16-12.53,16.02-16.35,6.87-3.81,14.77-5.72,23.71-5.72s16.32,1.85,23.14,5.56c6.81,3.71,12.1,8.97,15.86,15.78,3.76,6.81,5.64,14.63,5.64,23.46,0,3.27-.22,6.21-.65,8.83ZM645.68,122.44c-.11-5.89-2.24-10.6-6.38-14.14-4.14-3.54-9.21-5.31-15.21-5.31-5.67,0-10.44,1.72-14.31,5.15-3.87,3.43-6.24,8.2-7.11,14.31h43Z"/>
      <path class="cls-1" d="M708.96,55.23v121h-22.89V55.23h22.89Z"/>
      <path class="cls-1" d="M773.06,104.45h-15.86v71.78h-23.22v-71.78h-10.3v-18.8h10.3v-4.58c0-11.12,3.16-19.29,9.48-24.53,6.32-5.23,15.86-7.69,28.62-7.36v19.29c-5.56-.11-9.43.82-11.61,2.78-2.18,1.96-3.27,5.51-3.27,10.63v3.76h15.86v18.8Z"/>
      <path class="cls-1" d="M810.83,55.23v121h-22.89V55.23h22.89Z"/>
      <path class="cls-1" d="M850.07,171.9c-6.98-3.87-12.46-9.35-16.43-16.43-3.98-7.08-5.97-15.26-5.97-24.53s2.04-17.44,6.13-24.53c4.09-7.08,9.67-12.56,16.76-16.43,7.08-3.87,14.99-5.8,23.71-5.8s16.62,1.94,23.71,5.8c7.08,3.87,12.67,9.35,16.76,16.43,4.09,7.09,6.13,15.26,6.13,24.53s-2.1,17.44-6.3,24.53c-4.2,7.09-9.87,12.57-17.01,16.43-7.14,3.87-15.12,5.8-23.95,5.8s-16.57-1.93-23.55-5.8ZM885.31,154.73c3.65-2.02,6.57-5.04,8.75-9.07,2.18-4.03,3.27-8.94,3.27-14.72,0-8.61-2.26-15.23-6.79-19.87-4.52-4.63-10.06-6.95-16.6-6.95s-12.02,2.32-16.43,6.95c-4.42,4.63-6.62,11.26-6.62,19.87s2.15,15.23,6.46,19.87c4.3,4.63,9.73,6.95,16.27,6.95,4.14,0,8.04-1.01,11.69-3.03Z"/>
      <path class="cls-1" d="M1063.29,85.65l-26.49,90.59h-24.69l-16.51-63.28-16.51,63.28h-24.85l-26.65-90.59h23.22l16.02,69,17.33-69h24.2l17.01,68.84,16.02-68.84h21.91Z"/>
      <path class="cls-2" d="M479,85.68h25.84l18.48,27.96c-1.22.54,14.44-53.73,83.58-59.74,3.23-.28,6.47-.27,9.7,0,15.01,1.31,56.14,8.04,56.68,42.49,0,0-20.09-29.65-56.83-30.45-.37,0-3.38-.35-3.74-.33-21.03,1.13-56.56,13.87-77.93,65.19l30.09,45.46h-25.84l-18.64-28.12-16.51,28.12h-24.53l29.6-45.46-29.92-45.13Z"/>
      <g>
        <polygon class="cls-2" points="468.81 86.16 408.8 176.75 382.96 176.75 442.97 86.16 468.81 86.16"/>
        <polygon class="cls-2" points="382.96 86.16 442.97 176.75 468.81 176.75 408.8 86.16 382.96 86.16"/>
      </g>
    </g>
  </g>
</svg>